<svg width="57" height="13" viewBox="0 0 57 13" fill="none" xmlns="http://www.w3.org/2000/svg">
<g clip-path="url(#clip0_7_178)">
<path d="M54.088 4.91195L51.964 6.96396L52.6867 8.06433L55.344 12.3182H57.06L53.644 7.23996L55.936 4.91195H54.088Z" fill="#64B5F6"/>
<path d="M49.964 1.91199V9.99999H51.584V8.12799V6.36399V1.91199H49.964Z" fill="black"/>
<path d="M47.2746 10.032C46.2586 10.032 45.4786 9.78 44.9346 9.276C44.3986 8.772 44.1306 8.036 44.1306 7.068C44.1306 6.068 44.4186 5.324 44.9946 4.836C45.5786 4.348 46.3546 4.104 47.3226 4.104C47.7226 4.104 48.0666 4.132 48.3546 4.188C48.6426 4.244 48.9226 4.336 49.1946 4.464V5.628C48.9946 5.532 48.7626 5.456 48.4986 5.4C48.2346 5.344 47.9506 5.316 47.6466 5.316C47.0386 5.316 46.5746 5.444 46.2546 5.7C45.9346 5.948 45.7746 6.404 45.7746 7.068C45.7746 7.676 45.9186 8.12 46.2066 8.4C46.5026 8.68 46.9786 8.82 47.6346 8.82C47.9146 8.82 48.1866 8.792 48.4506 8.736C48.7226 8.68 48.9746 8.596 49.2066 8.484V9.684C48.6706 9.916 48.0266 10.032 47.2746 10.032Z" fill="black"/>
<path d="M40.8307 10.032C39.8467 10.032 39.0667 9.788 38.4907 9.3C37.9147 8.804 37.6267 8.056 37.6267 7.056C37.6267 6.152 37.8667 5.436 38.3467 4.908C38.8347 4.372 39.5587 4.104 40.5187 4.104C41.3987 4.104 42.0707 4.336 42.5347 4.8C43.0067 5.256 43.2427 5.856 43.2427 6.6V7.632H39.1267C39.2147 8.088 39.4227 8.4 39.7507 8.568C40.0867 8.736 40.5587 8.82 41.1667 8.82C41.4707 8.82 41.7787 8.792 42.0907 8.736C42.4107 8.68 42.6827 8.608 42.9067 8.52V9.672C42.6427 9.792 42.3347 9.88 41.9827 9.936C41.6307 10 41.2467 10.032 40.8307 10.032ZM39.1267 6.636H41.8267V6.324C41.8267 5.996 41.7307 5.74 41.5387 5.556C41.3467 5.364 41.0227 5.268 40.5667 5.268C40.0307 5.268 39.6547 5.376 39.4387 5.592C39.2307 5.808 39.1267 6.156 39.1267 6.636Z" fill="black"/>
<path d="M31.0113 9.91197V1.82397H32.6313V4.70397C32.8633 4.52797 33.1473 4.38397 33.4833 4.27197C33.8193 4.15997 34.1833 4.10397 34.5753 4.10397C35.3273 4.10397 35.8753 4.27997 36.2193 4.63197C36.5633 4.98397 36.7353 5.52797 36.7353 6.26397V9.91197H35.1153V6.34797C35.1153 5.96397 35.0353 5.69197 34.8753 5.53197C34.7233 5.37197 34.4353 5.29198 34.0113 5.29198C33.7633 5.29198 33.5113 5.34797 33.2553 5.45997C33.0073 5.57197 32.7993 5.71197 32.6313 5.87997V9.91197H31.0113Z" fill="black"/>
<path d="M28.0559 10.032C27.0399 10.032 26.2599 9.78 25.7159 9.276C25.1799 8.772 24.9119 8.036 24.9119 7.068C24.9119 6.068 25.1999 5.324 25.7759 4.836C26.3599 4.348 27.1359 4.104 28.1039 4.104C28.5039 4.104 28.8479 4.132 29.1359 4.188C29.4239 4.244 29.7039 4.336 29.9759 4.464V5.628C29.7759 5.532 29.5439 5.456 29.2799 5.4C29.0159 5.344 28.7319 5.316 28.4279 5.316C27.8199 5.316 27.3559 5.444 27.0359 5.7C26.7159 5.948 26.5559 6.404 26.5559 7.068C26.5559 7.676 26.6999 8.12 26.9879 8.4C27.2839 8.68 27.7599 8.82 28.4159 8.82C28.6959 8.82 28.9679 8.792 29.2319 8.736C29.5039 8.68 29.7559 8.596 29.9879 8.484V9.684C29.4519 9.916 28.8079 10.032 28.0559 10.032Z" fill="black"/>
<path d="M21.612 10.032C20.628 10.032 19.848 9.788 19.272 9.3C18.696 8.804 18.408 8.056 18.408 7.056C18.408 6.152 18.648 5.436 19.128 4.908C19.616 4.372 20.34 4.104 21.3 4.104C22.18 4.104 22.852 4.336 23.316 4.8C23.788 5.256 24.024 5.856 24.024 6.6V7.632H19.908C19.996 8.088 20.204 8.4 20.532 8.568C20.868 8.736 21.34 8.82 21.948 8.82C22.252 8.82 22.56 8.792 22.872 8.736C23.192 8.68 23.464 8.608 23.688 8.52V9.672C23.424 9.792 23.116 9.88 22.764 9.936C22.412 10 22.028 10.032 21.612 10.032ZM19.908 6.636H22.608V6.324C22.608 5.996 22.512 5.74 22.32 5.556C22.128 5.364 21.804 5.268 21.348 5.268C20.812 5.268 20.436 5.376 20.22 5.592C20.012 5.808 19.908 6.156 19.908 6.636Z" fill="black"/>
<path d="M8.53471 9.912V4.224H10.0347L10.0947 4.776C10.3667 4.568 10.6627 4.404 10.9827 4.284C11.3107 4.164 11.6627 4.104 12.0387 4.104C12.4387 4.104 12.7467 4.164 12.9627 4.284C13.1867 4.404 13.3587 4.576 13.4787 4.8C13.7427 4.592 14.0427 4.424 14.3787 4.296C14.7227 4.168 15.1267 4.104 15.5907 4.104C16.2467 4.104 16.7307 4.276 17.0427 4.62C17.3547 4.956 17.5107 5.472 17.5107 6.168V9.912H15.9147V6.348C15.9147 5.972 15.8347 5.704 15.6747 5.544C15.5147 5.376 15.2587 5.292 14.9067 5.292C14.4267 5.292 14.0267 5.464 13.7067 5.808C13.7467 5.944 13.7667 6.108 13.7667 6.3V9.912H12.2547V6.348C12.2547 5.996 12.1947 5.732 12.0747 5.556C11.9547 5.38 11.7227 5.292 11.3787 5.292C11.1387 5.292 10.9107 5.356 10.6947 5.484C10.4867 5.604 10.2987 5.744 10.1307 5.904V9.912H8.53471Z" fill="black"/>
<path d="M5.40336 3.17996V1.90796H7.16737V3.17996H5.40336ZM5.53536 9.91196V5.42396H4.68336L4.82736 4.22396H7.15536V9.91196H5.53536Z" fill="black"/>
<path d="M2.90398 10.032C2.24798 10.032 1.75998 9.85996 1.43998 9.51596C1.12798 9.17196 0.971984 8.70396 0.971984 8.11196V5.47196H0.167984V4.22396H0.971984V2.99996L2.59198 2.51996V4.22396H4.03198L3.93598 5.47196H2.59198V8.00396C2.59198 8.31596 2.66398 8.53196 2.80798 8.65196C2.95198 8.76396 3.17598 8.81996 3.47998 8.81996C3.70398 8.81996 3.93598 8.77996 4.17598 8.69996V9.81596C3.99998 9.88796 3.80798 9.93996 3.59998 9.97196C3.39198 10.012 3.15998 10.032 2.90398 10.032Z" fill="black"/>
</g>
<defs>
<clipPath id="clip0_7_178">
<rect width="57" height="13" fill="white"/>
</clipPath>
</defs>
</svg>
